<svg xmlns="http://www.w3.org/2000/svg" width="1609" height="1190" viewBox="0 0 1609 1190">
<title>Dependency graph</title>
<style>
	.background { fill: #ffffff; }
	.directory { stroke: #c5ccc9; stroke-width: 1; fill-opacity: 0.05; }
	.directory, .shade { fill: #000000; }
	.label-background { fill: #ffffff; }
	.file { fill: #ffffff; stroke: #9aa6a1; stroke-width: 1; }
	text { font-family: Helvetica, Arial, 'Liberation Sans', sans-serif; font-size: 12px; }
	.label { fill: #1b2220; text-anchor: middle; }
	.directory-label { fill: #66736d; font-weight: 600; }
	.edge { fill: none; stroke: #5f6b66; stroke-width: 1; stroke-opacity: 0.7; }
	.arrowhead { fill: #5f6b66; }
	svg { --outgoing: #d9480f; --incoming: #1971c2; }
	.background, .edge { pointer-events: none; }
	.node { cursor: default; }
	.node:hover .file { stroke-width: 2; }
	.arrowhead-dim { fill: #5f6b66; fill-opacity: 0.15; }
	.arrowhead-outgoing { fill: var(--outgoing); }
	.arrowhead-incoming { fill: var(--incoming); }
	@media (prefers-color-scheme: dark) {
		svg { --outgoing: #ff922b; --incoming: #4dabf7; }
		.arrowhead-dim { fill: #8b949e; }
		.background { fill: #0d1117; }
		.directory { stroke: #39424d; }
		.directory, .shade { fill: #ffffff; }
		.label-background { fill: #0d1117; }
		.file { fill: #0d1117; stroke: #5c6773; }
		.label { fill: #e6edf3; }
		.directory-label { fill: #8b949e; }
		.edge { stroke: #8b949e; }
		.arrowhead { fill: #8b949e; }
	}
	svg:has(.node:hover) .edge { stroke-opacity: 0.15; marker-end: url(#arrow-dim); }
	svg:has(.n39:hover) .inner-n39, svg:has(.n40:hover) .inner-n40, svg:has(.n43:hover) .inner-n43, svg:has(.n46:hover) .inner-n46 { stroke-opacity: 0.7; marker-end: url(#arrow); }
	svg:has(.n0:hover) .from-n0, svg:has(.n1:hover) .from-n1, svg:has(.n2:hover) .from-n2, svg:has(.n40:hover) .out-n40, svg:has(.n41:hover) .out-n41, svg:has(.n4:hover) .from-n4, svg:has(.n43:hover) .out-n43, svg:has(.n11:hover) .from-n11, svg:has(.n46:hover) .out-n46, svg:has(.n12:hover) .from-n12, svg:has(.n15:hover) .from-n15, svg:has(.n18:hover) .from-n18, svg:has(.n19:hover) .from-n19, svg:has(.n20:hover) .from-n20, svg:has(.n23:hover) .from-n23, svg:has(.n47:hover) .out-n47, svg:has(.n26:hover) .from-n26, svg:has(.n27:hover) .from-n27, svg:has(.n49:hover) .out-n49, svg:has(.n28:hover) .from-n28, svg:has(.n50:hover) .out-n50, svg:has(.n30:hover) .from-n30, svg:has(.n31:hover) .from-n31, svg:has(.n48:hover) .out-n48, svg:has(.n32:hover) .from-n32, svg:has(.n35:hover) .from-n35, svg:has(.n36:hover) .from-n36, svg:has(.n37:hover) .from-n37 { stroke: var(--outgoing); stroke-opacity: 1; marker-end: url(#arrow-outgoing); }
	svg:has(.n1:hover) .to-n1, svg:has(.n40:hover) .in-n40, svg:has(.n2:hover) .to-n2, svg:has(.n41:hover) .in-n41, svg:has(.n4:hover) .to-n4, svg:has(.n43:hover) .in-n43, svg:has(.n3:hover) .to-n3, svg:has(.n42:hover) .in-n42, svg:has(.n5:hover) .to-n5, svg:has(.n6:hover) .to-n6, svg:has(.n44:hover) .in-n44, svg:has(.n7:hover) .to-n7, svg:has(.n45:hover) .in-n45, svg:has(.n8:hover) .to-n8, svg:has(.n9:hover) .to-n9, svg:has(.n10:hover) .to-n10, svg:has(.n11:hover) .to-n11, svg:has(.n46:hover) .in-n46, svg:has(.n12:hover) .to-n12, svg:has(.n18:hover) .to-n18, svg:has(.n20:hover) .to-n20, svg:has(.n26:hover) .to-n26, svg:has(.n34:hover) .to-n34, svg:has(.n25:hover) .to-n25, svg:has(.n48:hover) .in-n48, svg:has(.n31:hover) .to-n31, svg:has(.n35:hover) .to-n35, svg:has(.n37:hover) .to-n37, svg:has(.n13:hover) .to-n13, svg:has(.n14:hover) .to-n14, svg:has(.n15:hover) .to-n15, svg:has(.n17:hover) .to-n17, svg:has(.n16:hover) .to-n16, svg:has(.n19:hover) .to-n19, svg:has(.n21:hover) .to-n21, svg:has(.n22:hover) .to-n22, svg:has(.n23:hover) .to-n23, svg:has(.n47:hover) .in-n47, svg:has(.n24:hover) .to-n24, svg:has(.n28:hover) .to-n28, svg:has(.n50:hover) .in-n50, svg:has(.n32:hover) .to-n32, svg:has(.n30:hover) .to-n30, svg:has(.n33:hover) .to-n33, svg:has(.n27:hover) .to-n27, svg:has(.n49:hover) .in-n49, svg:has(.n29:hover) .to-n29, svg:has(.n36:hover) .to-n36 { stroke: var(--incoming); stroke-opacity: 1; marker-end: url(#arrow-incoming); }
	svg:has(.n0:hover) .n1 .file, svg:has(.n1:hover) .n2 .file, svg:has(.n1:hover) .n4 .file, svg:has(.n2:hover) .n3 .file, svg:has(.n40:hover) .n3 .file, svg:has(.n41:hover) .n3 .file, svg:has(.n4:hover) .n5 .file, svg:has(.n43:hover) .n5 .file, svg:has(.n4:hover) .n6 .file, svg:has(.n43:hover) .n6 .file, svg:has(.n4:hover) .n7 .file, svg:has(.n43:hover) .n7 .file, svg:has(.n4:hover) .n8 .file, svg:has(.n43:hover) .n8 .file, svg:has(.n4:hover) .n9 .file, svg:has(.n43:hover) .n9 .file, svg:has(.n4:hover) .n10 .file, svg:has(.n43:hover) .n10 .file, svg:has(.n4:hover) .n11 .file, svg:has(.n43:hover) .n11 .file, svg:has(.n4:hover) .n12 .file, svg:has(.n4:hover) .n18 .file, svg:has(.n4:hover) .n20 .file, svg:has(.n4:hover) .n26 .file, svg:has(.n4:hover) .n34 .file, svg:has(.n4:hover) .n25 .file, svg:has(.n4:hover) .n31 .file, svg:has(.n4:hover) .n35 .file, svg:has(.n4:hover) .n37 .file, svg:has(.n11:hover) .n7 .file, svg:has(.n46:hover) .n7 .file, svg:has(.n12:hover) .n13 .file, svg:has(.n43:hover) .n13 .file, svg:has(.n12:hover) .n14 .file, svg:has(.n43:hover) .n14 .file, svg:has(.n12:hover) .n15 .file, svg:has(.n12:hover) .n17 .file, svg:has(.n15:hover) .n14 .file, svg:has(.n15:hover) .n16 .file, svg:has(.n43:hover) .n16 .file, svg:has(.n18:hover) .n13 .file, svg:has(.n18:hover) .n19 .file, svg:has(.n43:hover) .n19 .file, svg:has(.n18:hover) .n17 .file, svg:has(.n19:hover) .n7 .file, svg:has(.n19:hover) .n11 .file, svg:has(.n20:hover) .n21 .file, svg:has(.n43:hover) .n21 .file, svg:has(.n20:hover) .n22 .file, svg:has(.n43:hover) .n22 .file, svg:has(.n20:hover) .n8 .file, svg:has(.n20:hover) .n23 .file, svg:has(.n23:hover) .n24 .file, svg:has(.n43:hover) .n24 .file, svg:has(.n47:hover) .n24 .file, svg:has(.n23:hover) .n25 .file, svg:has(.n47:hover) .n25 .file, svg:has(.n23:hover) .n22 .file, svg:has(.n47:hover) .n22 .file, svg:has(.n23:hover) .n31 .file, svg:has(.n47:hover) .n31 .file, svg:has(.n23:hover) .n28 .file, svg:has(.n43:hover) .n28 .file, svg:has(.n47:hover) .n28 .file, svg:has(.n23:hover) .n32 .file, svg:has(.n43:hover) .n32 .file, svg:has(.n47:hover) .n32 .file, svg:has(.n23:hover) .n30 .file, svg:has(.n43:hover) .n30 .file, svg:has(.n47:hover) .n30 .file, svg:has(.n23:hover) .n33 .file, svg:has(.n43:hover) .n33 .file, svg:has(.n47:hover) .n33 .file, svg:has(.n26:hover) .n7 .file, svg:has(.n26:hover) .n27 .file, svg:has(.n26:hover) .n34 .file, svg:has(.n27:hover) .n21 .file, svg:has(.n49:hover) .n21 .file, svg:has(.n27:hover) .n23 .file, svg:has(.n49:hover) .n23 .file, svg:has(.n27:hover) .n28 .file, svg:has(.n49:hover) .n28 .file, svg:has(.n27:hover) .n30 .file, svg:has(.n49:hover) .n30 .file, svg:has(.n27:hover) .n29 .file, svg:has(.n43:hover) .n29 .file, svg:has(.n49:hover) .n29 .file, svg:has(.n27:hover) .n22 .file, svg:has(.n49:hover) .n22 .file, svg:has(.n27:hover) .n7 .file, svg:has(.n49:hover) .n7 .file, svg:has(.n28:hover) .n29 .file, svg:has(.n50:hover) .n29 .file, svg:has(.n30:hover) .n6 .file, svg:has(.n50:hover) .n6 .file, svg:has(.n31:hover) .n32 .file, svg:has(.n48:hover) .n32 .file, svg:has(.n32:hover) .n6 .file, svg:has(.n35:hover) .n7 .file, svg:has(.n35:hover) .n36 .file, svg:has(.n36:hover) .n7 .file, svg:has(.n36:hover) .n23 .file, svg:has(.n37:hover) .n7 .file, svg:has(.n37:hover) .n23 .file, svg:has(.n37:hover) .n27 .file, svg:has(.n37:hover) .n34 .file { stroke: var(--outgoing); }
	svg:has(.n1:hover) .n0 .file, svg:has(.n40:hover) .n0 .file, svg:has(.n2:hover) .n1 .file, svg:has(.n41:hover) .n1 .file, svg:has(.n4:hover) .n1 .file, svg:has(.n43:hover) .n1 .file, svg:has(.n3:hover) .n2 .file, svg:has(.n42:hover) .n2 .file, svg:has(.n5:hover) .n4 .file, svg:has(.n41:hover) .n4 .file, svg:has(.n6:hover) .n4 .file, svg:has(.n44:hover) .n4 .file, svg:has(.n7:hover) .n4 .file, svg:has(.n45:hover) .n4 .file, svg:has(.n8:hover) .n4 .file, svg:has(.n9:hover) .n4 .file, svg:has(.n10:hover) .n4 .file, svg:has(.n11:hover) .n4 .file, svg:has(.n46:hover) .n4 .file, svg:has(.n12:hover) .n4 .file, svg:has(.n18:hover) .n4 .file, svg:has(.n20:hover) .n4 .file, svg:has(.n26:hover) .n4 .file, svg:has(.n34:hover) .n4 .file, svg:has(.n25:hover) .n4 .file, svg:has(.n48:hover) .n4 .file, svg:has(.n31:hover) .n4 .file, svg:has(.n35:hover) .n4 .file, svg:has(.n37:hover) .n4 .file, svg:has(.n7:hover) .n11 .file, svg:has(.n45:hover) .n11 .file, svg:has(.n13:hover) .n12 .file, svg:has(.n46:hover) .n12 .file, svg:has(.n14:hover) .n12 .file, svg:has(.n15:hover) .n12 .file, svg:has(.n17:hover) .n12 .file, svg:has(.n14:hover) .n15 .file, svg:has(.n46:hover) .n15 .file, svg:has(.n16:hover) .n15 .file, svg:has(.n13:hover) .n18 .file, svg:has(.n46:hover) .n18 .file, svg:has(.n19:hover) .n18 .file, svg:has(.n17:hover) .n18 .file, svg:has(.n7:hover) .n19 .file, svg:has(.n45:hover) .n19 .file, svg:has(.n11:hover) .n19 .file, svg:has(.n21:hover) .n20 .file, svg:has(.n44:hover) .n20 .file, svg:has(.n22:hover) .n20 .file, svg:has(.n8:hover) .n20 .file, svg:has(.n45:hover) .n20 .file, svg:has(.n23:hover) .n20 .file, svg:has(.n47:hover) .n20 .file, svg:has(.n24:hover) .n23 .file, svg:has(.n41:hover) .n23 .file, svg:has(.n25:hover) .n23 .file, svg:has(.n48:hover) .n23 .file, svg:has(.n22:hover) .n23 .file, svg:has(.n44:hover) .n23 .file, svg:has(.n31:hover) .n23 .file, svg:has(.n28:hover) .n23 .file, svg:has(.n50:hover) .n23 .file, svg:has(.n32:hover) .n23 .file, svg:has(.n30:hover) .n23 .file, svg:has(.n33:hover) .n23 .file, svg:has(.n7:hover) .n26 .file, svg:has(.n45:hover) .n26 .file, svg:has(.n27:hover) .n26 .file, svg:has(.n49:hover) .n26 .file, svg:has(.n34:hover) .n26 .file, svg:has(.n21:hover) .n27 .file, svg:has(.n44:hover) .n27 .file, svg:has(.n23:hover) .n27 .file, svg:has(.n47:hover) .n27 .file, svg:has(.n28:hover) .n27 .file, svg:has(.n50:hover) .n27 .file, svg:has(.n30:hover) .n27 .file, svg:has(.n29:hover) .n27 .file, svg:has(.n22:hover) .n27 .file, svg:has(.n7:hover) .n27 .file, svg:has(.n45:hover) .n27 .file, svg:has(.n29:hover) .n28 .file, svg:has(.n44:hover) .n28 .file, svg:has(.n6:hover) .n30 .file, svg:has(.n44:hover) .n30 .file, svg:has(.n32:hover) .n31 .file, svg:has(.n50:hover) .n31 .file, svg:has(.n6:hover) .n32 .file, svg:has(.n44:hover) .n32 .file, svg:has(.n7:hover) .n35 .file, svg:has(.n45:hover) .n35 .file, svg:has(.n36:hover) .n35 .file, svg:has(.n7:hover) .n36 .file, svg:has(.n45:hover) .n36 .file, svg:has(.n23:hover) .n36 .file, svg:has(.n47:hover) .n36 .file, svg:has(.n7:hover) .n37 .file, svg:has(.n45:hover) .n37 .file, svg:has(.n23:hover) .n37 .file, svg:has(.n47:hover) .n37 .file, svg:has(.n27:hover) .n37 .file, svg:has(.n49:hover) .n37 .file, svg:has(.n34:hover) .n37 .file { stroke: var(--incoming); }
	svg:has(.n39:hover) .directory.n39, svg:has(.n40:hover) .directory.n40, svg:has(.n41:hover) .directory.n41, svg:has(.n42:hover) .directory.n42, svg:has(.n43:hover) .directory.n43, svg:has(.n44:hover) .directory.n44, svg:has(.n45:hover) .directory.n45, svg:has(.n46:hover) .directory.n46, svg:has(.n47:hover) .directory.n47, svg:has(.n48:hover) .directory.n48, svg:has(.n49:hover) .directory.n49, svg:has(.n50:hover) .directory.n50 { stroke-width: 2; }
</style>
<defs>
<marker id="arrow" viewBox="0 0 8 8" refX="8" refY="4" markerWidth="5" markerHeight="5" orient="auto"><path class="arrowhead" d="M0,0 L8,4 L0,8 z"/></marker>
<marker id="arrow-dim" viewBox="0 0 8 8" refX="8" refY="4" markerWidth="5" markerHeight="5" orient="auto"><path class="arrowhead-dim" d="M0,0 L8,4 L0,8 z"/></marker>
<marker id="arrow-outgoing" viewBox="0 0 8 8" refX="8" refY="4" markerWidth="5" markerHeight="5" orient="auto"><path class="arrowhead-outgoing" d="M0,0 L8,4 L0,8 z"/></marker>
<marker id="arrow-incoming" viewBox="0 0 8 8" refX="8" refY="4" markerWidth="5" markerHeight="5" orient="auto"><path class="arrowhead-incoming" d="M0,0 L8,4 L0,8 z"/></marker>
</defs>
<rect class="background" width="1609" height="1190"/>
<rect class="directory node n39" x="12" y="12" width="1585" height="1166" rx="6"/>
<rect class="directory node n40" x="22" y="96" width="1565" height="974" rx="6"/>
<rect class="directory node n41" x="93" y="825" width="262.03" height="62" rx="6"/>
<g class="node n2">
<rect class="file" x="103" y="853" width="59.34" height="24" rx="4"/>
<text class="label" x="132.67" y="869" textLength="43.34" lengthAdjust="spacingAndGlyphs">styles.ts</text>
</g>
<g class="node n5">
<rect class="file" x="255" y="853" width="90.03" height="24" rx="4"/>
<text class="label" x="300.01" y="869" textLength="74.03" lengthAdjust="spacingAndGlyphs">map_labels.ts</text>
</g>
<g class="node n24">
<rect class="file" x="179" y="853" width="59.34" height="24" rx="4"/>
<text class="label" x="208.67" y="869" textLength="43.34" lengthAdjust="spacingAndGlyphs">frame.ts</text>
</g>
<rect class="directory node n43" x="304" y="180" width="1250" height="580" rx="6"/>
<rect class="directory node n47" x="590" y="542" width="90.01" height="62" rx="6"/>
<g class="node n23">
<rect class="file" x="600" y="570" width="70.01" height="24" rx="4"/>
<text class="label" x="635.01" y="586" textLength="54.01" lengthAdjust="spacingAndGlyphs">* (17 files)</text>
</g>
<rect class="directory node n48" x="374" y="664" width="287.03" height="62" rx="6"/>
<g class="node n25">
<rect class="file" x="523" y="692" width="128.03" height="24" rx="4"/>
<text class="label" x="587.02" y="708" textLength="112.03" lengthAdjust="spacingAndGlyphs">color_picker.svelte.ts</text>
</g>
<g class="node n31">
<rect class="file" x="384" y="692" width="122.04" height="24" rx="4"/>
<text class="label" x="445.02" y="708" textLength="106.04" lengthAdjust="spacingAndGlyphs">font_picker.svelte.ts</text>
</g>
<rect class="directory node n49" x="567" y="388" width="90.01" height="62" rx="6"/>
<g class="node n27">
<rect class="file" x="577" y="416" width="70.01" height="24" rx="4"/>
<text class="label" x="612.01" y="432" textLength="54.01" lengthAdjust="spacingAndGlyphs">* (10 files)</text>
</g>
<g class="node n4">
<rect class="file" x="972" y="208" width="81.35" height="24" rx="4"/>
<text class="label" x="1012.68" y="224" textLength="65.35" lengthAdjust="spacingAndGlyphs">Styler.svelte</text>
</g>
<g class="node n12">
<rect class="file" x="1403" y="308" width="119.37" height="24" rx="4"/>
<text class="label" x="1462.68" y="324" textLength="103.37" lengthAdjust="spacingAndGlyphs">ExportDialog.svelte</text>
</g>
<g class="node n15">
<rect class="file" x="1384" y="413.33" width="108.7" height="24" rx="4"/>
<text class="label" x="1438.35" y="429.33" textLength="92.7" lengthAdjust="spacingAndGlyphs">CodeBlock.svelte</text>
</g>
<g class="node n17">
<rect class="file" x="1279" y="388" width="83.36" height="24" rx="4"/>
<text class="label" x="1320.68" y="404" textLength="67.36" lengthAdjust="spacingAndGlyphs">Modal.svelte</text>
</g>
<g class="node n18">
<rect class="file" x="1259" y="308" width="118.7" height="24" rx="4"/>
<text class="label" x="1318.35" y="324" textLength="102.7" lengthAdjust="spacingAndGlyphs">ImportDialog.svelte</text>
</g>
<g class="node n20">
<rect class="file" x="674" y="418.4" width="124.06" height="24" rx="4"/>
<text class="label" x="736.03" y="434.4" textLength="108.06" lengthAdjust="spacingAndGlyphs">InspectPopup.svelte</text>
</g>
<g class="node n26">
<rect class="file" x="935" y="308" width="150.72" height="24" rx="4"/>
<text class="label" x="1010.36" y="324" textLength="134.72" lengthAdjust="spacingAndGlyphs">SatelliteStylePanel.svelte</text>
</g>
<g class="node n34">
<rect class="file" x="815" y="388" width="132.05" height="24" rx="4"/>
<text class="label" x="881.03" y="404" textLength="116.05" lengthAdjust="spacingAndGlyphs">SidebarSection.svelte</text>
</g>
<g class="node n35">
<rect class="file" x="1116" y="308" width="121.37" height="24" rx="4"/>
<text class="label" x="1176.69" y="324" textLength="105.37" lengthAdjust="spacingAndGlyphs">ThemeSelect.svelte</text>
</g>
<g class="node n36">
<rect class="file" x="964" y="413.33" width="121.36" height="24" rx="4"/>
<text class="label" x="1024.68" y="429.33" textLength="105.36" lengthAdjust="spacingAndGlyphs">ThemePicker.svelte</text>
</g>
<g class="node n37">
<rect class="file" x="771" y="308" width="142.72" height="24" rx="4"/>
<text class="label" x="842.36" y="324" textLength="126.72" lengthAdjust="spacingAndGlyphs">VectorStylePanel.svelte</text>
</g>
<rect class="directory node n44" x="451" y="978" width="335.68" height="62" rx="6"/>
<g class="node n6">
<rect class="file" x="538" y="1006" width="84.04" height="24" rx="4"/>
<text class="label" x="580.02" y="1022" textLength="68.04" lengthAdjust="spacingAndGlyphs">languages.ts</text>
</g>
<g class="node n21">
<rect class="file" x="716" y="1006" width="60.68" height="24" rx="4"/>
<text class="label" x="746.34" y="1022" textLength="44.68" lengthAdjust="spacingAndGlyphs">colors.ts</text>
</g>
<g class="node n22">
<rect class="file" x="639" y="1006" width="60.68" height="24" rx="4"/>
<text class="label" x="669.34" y="1022" textLength="44.68" lengthAdjust="spacingAndGlyphs">layers.ts</text>
</g>
<g class="node n29">
<rect class="file" x="461" y="1006" width="60.02" height="24" rx="4"/>
<text class="label" x="491.01" y="1022" textLength="44.02" lengthAdjust="spacingAndGlyphs">labels.ts</text>
</g>
<rect class="directory node n45" x="979" y="978" width="332.68" height="82" rx="6"/>
<g class="node n7">
<rect class="file" x="1154" y="1026" width="60.69" height="24" rx="4"/>
<text class="label" x="1184.34" y="1042" textLength="44.69" lengthAdjust="spacingAndGlyphs">config.ts</text>
</g>
<g class="node n8">
<rect class="file" x="989" y="1026" width="66.69" height="24" rx="4"/>
<text class="label" x="1022.34" y="1042" textLength="50.69" lengthAdjust="spacingAndGlyphs">inspect.ts</text>
</g>
<g class="node n9">
<rect class="file" x="1231" y="1026" width="70.68" height="24" rx="4"/>
<text class="label" x="1266.34" y="1042" textLength="54.68" lengthAdjust="spacingAndGlyphs">sources.ts</text>
</g>
<g class="node n10">
<rect class="file" x="1072" y="1026" width="65.37" height="24" rx="4"/>
<text class="label" x="1104.68" y="1042" textLength="49.37" lengthAdjust="spacingAndGlyphs">update.ts</text>
</g>
<rect class="directory node n46" x="1210" y="812" width="355.69" height="114" rx="6"/>
<g class="node n11">
<rect class="file" x="1501" y="892" width="54.69" height="24" rx="4"/>
<text class="label" x="1528.34" y="908" textLength="38.69" lengthAdjust="spacingAndGlyphs">hash.ts</text>
</g>
<g class="node n13">
<rect class="file" x="1389" y="840" width="54.02" height="24" rx="4"/>
<text class="label" x="1416.01" y="856" textLength="38.02" lengthAdjust="spacingAndGlyphs">docs.ts</text>
</g>
<g class="node n14">
<rect class="file" x="1460" y="840" width="62.02" height="24" rx="4"/>
<text class="label" x="1491.01" y="856" textLength="46.02" lengthAdjust="spacingAndGlyphs">export.ts</text>
</g>
<g class="node n16">
<rect class="file" x="1299" y="840" width="73.36" height="24" rx="4"/>
<text class="label" x="1335.68" y="856" textLength="57.36" lengthAdjust="spacingAndGlyphs">highlight.ts</text>
</g>
<g class="node n19">
<rect class="file" x="1220" y="840" width="62.01" height="24" rx="4"/>
<text class="label" x="1251" y="856" textLength="46.01" lengthAdjust="spacingAndGlyphs">import.ts</text>
</g>
<rect class="directory node n50" x="386" y="827.6" width="315.35" height="62" rx="6"/>
<g class="node n28">
<rect class="file" x="396" y="855.6" width="69.34" height="24" rx="4"/>
<text class="label" x="430.67" y="871.6" textLength="53.34" lengthAdjust="spacingAndGlyphs">families.ts</text>
</g>
<g class="node n30">
<rect class="file" x="642" y="855.6" width="49.35" height="24" rx="4"/>
<text class="label" x="666.67" y="871.6" textLength="33.35" lengthAdjust="spacingAndGlyphs">tree.ts</text>
</g>
<g class="node n32">
<rect class="file" x="482" y="855.6" width="63.34" height="24" rx="4"/>
<text class="label" x="513.67" y="871.6" textLength="47.34" lengthAdjust="spacingAndGlyphs">scripts.ts</text>
</g>
<g class="node n33">
<rect class="file" x="562" y="855.6" width="63.35" height="24" rx="4"/>
<text class="label" x="593.68" y="871.6" textLength="47.35" lengthAdjust="spacingAndGlyphs">glyphs.ts</text>
</g>
<g class="node n1">
<rect class="file" x="106" y="124" width="64.68" height="24" rx="4"/>
<text class="label" x="138.34" y="140" textLength="48.68" lengthAdjust="spacingAndGlyphs">control.ts</text>
</g>
<g class="node n38">
<rect class="file" x="32" y="124" width="57.35" height="24" rx="4"/>
<text class="label" x="60.68" y="140" textLength="41.35" lengthAdjust="spacingAndGlyphs">types.ts</text>
</g>
<rect class="directory node n42" x="69" y="1106" width="128.02" height="62" rx="6"/>
<g class="node n3">
<rect class="file" x="79" y="1134" width="108.02" height="24" rx="4"/>
<text class="label" x="133.01" y="1150" textLength="92.02" lengthAdjust="spacingAndGlyphs">control-style.scss</text>
</g>
<g class="node n0">
<rect class="file" x="109" y="40" width="57.35" height="24" rx="4"/>
<text class="label" x="137.68" y="56" textLength="41.35" lengthAdjust="spacingAndGlyphs">index.ts</text>
</g>
<path class="edge from-n0 to-n1 inner-n39 in-n40" d="M138,64 L138,124" marker-end="url(#arrow)"/>
<path class="edge from-n1 to-n2 inner-n39 inner-n40 in-n41" d="M133,148 L133,853" marker-end="url(#arrow)"/>
<path class="edge from-n1 to-n4 inner-n39 inner-n40 in-n43" d="M143,148 L143,158 L1013,158 L1013,208" marker-end="url(#arrow)"/>
<path class="edge from-n2 to-n3 inner-n39 out-n40 out-n41 in-n42" d="M133,877 L133,1134" marker-end="url(#arrow)"/>
<path class="edge from-n4 to-n5 inner-n39 inner-n40 in-n41 out-n43" d="M972,232 L972,242 L324,242 L324,782 L300,782 L300,853" marker-end="url(#arrow)"/>
<path class="edge from-n4 to-n6 inner-n39 inner-n40 out-n43 in-n44" d="M977,232 L977,250 L344,250 L344,790 L375,790 L375,948 L570,948 L570,1006" marker-end="url(#arrow)"/>
<path class="edge from-n4 to-n7 inner-n39 inner-n40 out-n43 in-n45" d="M1032,232 L1032,274 L1248,274 L1248,774 L1189,774 L1189,1026" marker-end="url(#arrow)"/>
<path class="edge from-n4 to-n8 inner-n39 inner-n40 out-n43 in-n45" d="M1015,232 L1015,298 L1096,298 L1096,618 L1095,618 L1095,774 L1027,774 L1027,1026" marker-end="url(#arrow)"/>
<path class="edge from-n4 to-n9 inner-n39 inner-n40 out-n43 in-n45" d="M1053,232 L1053,242 L1543,242 L1543,774 L1576,774 L1576,956 L1266,956 L1266,1026" marker-end="url(#arrow)"/>
<path class="edge from-n4 to-n10 inner-n39 inner-n40 out-n43 in-n45" d="M1021,232 L1021,290 L1105,290 L1105,1026" marker-end="url(#arrow)"/>
<path class="edge from-n4 to-n11 inner-n39 inner-n40 out-n43 in-n46" d="M1048,232 L1048,250 L1533,250 L1533,892" marker-end="url(#arrow)"/>
<path class="edge from-n4 to-n12 inner-n39 inner-n40 inner-n43" d="M1043,232 L1043,258 L1463,258 L1463,308" marker-end="url(#arrow)"/>
<path class="edge from-n4 to-n18 inner-n39 inner-n40 inner-n43" d="M1037,232 L1037,266 L1318,266 L1318,308" marker-end="url(#arrow)"/>
<path class="edge from-n4 to-n20 inner-n39 inner-n40 inner-n43" d="M994,232 L994,274 L736,274 L736,418.4" marker-end="url(#arrow)"/>
<path class="edge from-n4 to-n26 inner-n39 inner-n40 inner-n43" d="M1010,232 L1010,308" marker-end="url(#arrow)"/>
<path class="edge from-n4 to-n34 inner-n39 inner-n40 inner-n43" d="M1005,232 L1005,290 L924,290 L924,342 L881,342 L881,388" marker-end="url(#arrow)"/>
<path class="edge from-n4 to-n25 inner-n39 inner-n40 inner-n43 in-n48" d="M988,232 L988,266 L547,266 L547,650 L582,650 L582,692" marker-end="url(#arrow)"/>
<path class="edge from-n4 to-n31 inner-n39 inner-n40 inner-n43 in-n48" d="M983,232 L983,258 L538,258 L538,618 L440,618 L440,692" marker-end="url(#arrow)"/>
<path class="edge from-n4 to-n35 inner-n39 inner-n40 inner-n43" d="M1026,232 L1026,282 L1177,282 L1177,308" marker-end="url(#arrow)"/>
<path class="edge from-n4 to-n37 inner-n39 inner-n40 inner-n43" d="M999,232 L999,282 L842,282 L842,308" marker-end="url(#arrow)"/>
<path class="edge from-n11 to-n7 inner-n39 inner-n40 in-n45 out-n46" d="M1528,916 L1528,948 L1219,948 L1219,1016 L1215,1016 L1215,1026" marker-end="url(#arrow)"/>
<path class="edge from-n12 to-n13 inner-n39 inner-n40 out-n43 in-n46" d="M1468,332 L1468,350 L1503,350 L1503,774 L1421,774 L1421,840" marker-end="url(#arrow)"/>
<path class="edge from-n12 to-n14 inner-n39 inner-n40 out-n43 in-n46" d="M1478,332 L1478,342 L1523,342 L1523,790 L1496,790 L1496,840" marker-end="url(#arrow)"/>
<path class="edge from-n12 to-n15 inner-n39 inner-n40 inner-n43" d="M1458,332 L1458,358 L1438,358 L1438,413.33" marker-end="url(#arrow)"/>
<path class="edge from-n12 to-n17 inner-n39 inner-n40 inner-n43" d="M1448,332 L1448,350 L1326,350 L1326,388" marker-end="url(#arrow)"/>
<path class="edge from-n15 to-n14 inner-n39 inner-n40 out-n43 in-n46" d="M1443,437.33 L1443,464 L1513,464 L1513,782 L1486,782 L1486,840" marker-end="url(#arrow)"/>
<path class="edge from-n15 to-n16 inner-n39 inner-n40 out-n43 in-n46" d="M1433,437.33 L1433,464 L1363,464 L1363,774 L1336,774 L1336,840" marker-end="url(#arrow)"/>
<path class="edge from-n18 to-n13 inner-n39 inner-n40 out-n43 in-n46" d="M1328,332 L1328,342 L1373,342 L1373,774 L1411,774 L1411,840" marker-end="url(#arrow)"/>
<path class="edge from-n18 to-n19 inner-n39 inner-n40 out-n43 in-n46" d="M1308,332 L1308,342 L1268,342 L1268,790 L1251,790 L1251,840" marker-end="url(#arrow)"/>
<path class="edge from-n18 to-n17 inner-n39 inner-n40 inner-n43" d="M1318,332 L1318,342 L1316,342 L1316,388" marker-end="url(#arrow)"/>
<path class="edge from-n19 to-n7 inner-n39 inner-n40 in-n45 out-n46" d="M1246,864 L1246,940 L1209,940 L1209,1016 L1206,1016 L1206,1026" marker-end="url(#arrow)"/>
<path class="edge from-n19 to-n11 inner-n39 inner-n40 inner-n46" d="M1256,864 L1256,874 L1523,874 L1523,892" marker-end="url(#arrow)"/>
<path class="edge from-n20 to-n21 inner-n39 inner-n40 out-n43 in-n44" d="M741,442.4 L741,1006" marker-end="url(#arrow)"/>
<path class="edge from-n20 to-n22 inner-n39 inner-n40 out-n43 in-n44" d="M731,442.4 L731,496 L711,496 L711,774 L712,774 L712,948 L659,948 L659,1006" marker-end="url(#arrow)"/>
<path class="edge from-n20 to-n8 inner-n39 inner-n40 out-n43 in-n45" d="M751,442.4 L751,464 L761,464 L761,940 L1017,940 L1017,1026" marker-end="url(#arrow)"/>
<path class="edge from-n20 to-n23 inner-n39 inner-n40 inner-n43 in-n47" d="M721,442.4 L721,488 L630,488 L630,570" marker-end="url(#arrow)"/>
<path class="edge from-n23 to-n24 inner-n39 inner-n40 in-n41 out-n43 out-n47" d="M600,594 L600,626 L314,626 L314,774 L209,774 L209,853" marker-end="url(#arrow)"/>
<path class="edge from-n23 to-n25 inner-n39 inner-n40 inner-n43 out-n47 in-n48" d="M630,594 L630,650 L592,650 L592,692" marker-end="url(#arrow)"/>
<path class="edge from-n23 to-n22 inner-n39 inner-n40 out-n43 in-n44 out-n47" d="M670,594 L670,618 L721,618 L721,956 L669,956 L669,1006" marker-end="url(#arrow)"/>
<path class="edge from-n23 to-n31 inner-n39 inner-n40 inner-n43 out-n47 in-n48" d="M620,594 L620,642 L450,642 L450,692" marker-end="url(#arrow)"/>
<path class="edge from-n23 to-n28 inner-n39 inner-n40 out-n43 out-n47 in-n50" d="M610,594 L610,634 L363,634 L363,740 L364,740 L364,774 L436,774 L436,855.6" marker-end="url(#arrow)"/>
<path class="edge from-n23 to-n32 inner-n39 inner-n40 out-n43 out-n47 in-n50" d="M640,594 L640,642 L672,642 L672,740 L671,740 L671,774 L519,774 L519,855.6" marker-end="url(#arrow)"/>
<path class="edge from-n23 to-n30 inner-n39 inner-n40 out-n43 out-n47 in-n50" d="M660,594 L660,626 L701,626 L701,798 L672,798 L672,855.6" marker-end="url(#arrow)"/>
<path class="edge from-n23 to-n33 inner-n39 inner-n40 out-n43 out-n47 in-n50" d="M650,594 L650,634 L681,634 L681,782 L594,782 L594,855.6" marker-end="url(#arrow)"/>
<path class="edge from-n26 to-n7 inner-n39 inner-n40 out-n43 in-n45" d="M1020,332 L1020,342 L1125,342 L1125,956 L1159,956 L1159,1016 L1163,1016 L1163,1026" marker-end="url(#arrow)"/>
<path class="edge from-n26 to-n27 inner-n39 inner-n40 inner-n43 in-n49" d="M1000,332 L1000,358 L617,358 L617,416" marker-end="url(#arrow)"/>
<path class="edge from-n26 to-n34 inner-n39 inner-n40 inner-n43" d="M1010,332 L1010,374 L891,374 L891,388" marker-end="url(#arrow)"/>
<path class="edge from-n27 to-n21 inner-n39 inner-n40 out-n43 in-n44 out-n49" d="M632,440 L632,480 L751,480 L751,1006" marker-end="url(#arrow)"/>
<path class="edge from-n27 to-n23 inner-n39 inner-n40 inner-n43 in-n47 out-n49" d="M602,440 L602,520 L640,520 L640,570" marker-end="url(#arrow)"/>
<path class="edge from-n27 to-n28 inner-n39 inner-n40 out-n43 out-n49 in-n50" d="M592,440 L592,472 L354,472 L354,782 L426,782 L426,855.6" marker-end="url(#arrow)"/>
<path class="edge from-n27 to-n30 inner-n39 inner-n40 out-n43 out-n49 in-n50" d="M612,440 L612,512 L691,512 L691,790 L662,790 L662,855.6" marker-end="url(#arrow)"/>
<path class="edge from-n27 to-n29 inner-n39 inner-n40 out-n43 in-n44 out-n49" d="M582,440 L582,464 L334,464 L334,798 L366,798 L366,956 L486,956 L486,1006" marker-end="url(#arrow)"/>
<path class="edge from-n27 to-n22 inner-n39 inner-n40 out-n43 in-n44 out-n49" d="M622,440 L622,504 L731,504 L731,964 L679,964 L679,1006" marker-end="url(#arrow)"/>
<path class="edge from-n27 to-n7 inner-n39 inner-n40 out-n43 in-n45 out-n49" d="M642,440 L642,472 L1135,472 L1135,948 L1169,948 L1169,1016 L1171,1016 L1171,1026" marker-end="url(#arrow)"/>
<path class="edge from-n28 to-n29 inner-n39 inner-n40 in-n44 out-n50" d="M431,879.6 L431,940 L496,940 L496,1006" marker-end="url(#arrow)"/>
<path class="edge from-n30 to-n6 inner-n39 inner-n40 in-n44 out-n50" d="M667,879.6 L667,940 L590,940 L590,1006" marker-end="url(#arrow)"/>
<path class="edge from-n31 to-n32 inner-n39 inner-n40 out-n43 out-n48 in-n50" d="M445,716 L445,774 L509,774 L509,855.6" marker-end="url(#arrow)"/>
<path class="edge from-n32 to-n6 inner-n39 inner-n40 in-n44 out-n50" d="M514,879.6 L514,940 L580,940 L580,1006" marker-end="url(#arrow)"/>
<path class="edge from-n35 to-n7 inner-n39 inner-n40 out-n43 in-n45" d="M1182,332 L1182,342 L1258,342 L1258,782 L1199,782 L1199,1016 L1197,1016 L1197,1026" marker-end="url(#arrow)"/>
<path class="edge from-n35 to-n36 inner-n39 inner-n40 inner-n43" d="M1172,332 L1172,374 L1025,374 L1025,413.33" marker-end="url(#arrow)"/>
<path class="edge from-n36 to-n7 inner-n39 inner-n40 out-n43 in-n45" d="M1030,437.33 L1030,464 L1145,464 L1145,940 L1179,940 L1179,1016 L1180,1016 L1180,1026" marker-end="url(#arrow)"/>
<path class="edge from-n36 to-n23 inner-n39 inner-n40 inner-n43 in-n47" d="M1020,437.33 L1020,520 L650,520 L650,570" marker-end="url(#arrow)"/>
<path class="edge from-n37 to-n7 inner-n39 inner-n40 out-n43 in-n45" d="M857,332 L857,366 L1115,366 L1115,964 L1149,964 L1149,1016 L1154,1016 L1154,1026" marker-end="url(#arrow)"/>
<path class="edge from-n37 to-n23 inner-n39 inner-n40 inner-n43 in-n47" d="M827,332 L827,342 L556,342 L556,528 L620,528 L620,570" marker-end="url(#arrow)"/>
<path class="edge from-n37 to-n27 inner-n39 inner-n40 inner-n43 in-n49" d="M837,332 L837,350 L607,350 L607,416" marker-end="url(#arrow)"/>
<path class="edge from-n37 to-n34 inner-n39 inner-n40 inner-n43" d="M847,332 L847,374 L871,374 L871,388" marker-end="url(#arrow)"/>
<g class="node n39">
<rect class="label-background" x="19" y="16" width="24.01" height="16" rx="2"/>
<rect class="shade" x="19" y="16" width="24.01" height="16" rx="2" fill-opacity="0.05"/>
<text class="directory-label" x="22" y="28" textLength="18.01" lengthAdjust="spacingAndGlyphs">src</text>
</g>
<g class="node n40">
<rect class="label-background" x="29" y="100" width="20" height="16" rx="2"/>
<rect class="shade" x="29" y="100" width="20" height="16" rx="2" fill-opacity="0.0975"/>
<text class="directory-label" x="32" y="112" textLength="14" lengthAdjust="spacingAndGlyphs">lib</text>
</g>
<g class="node n41">
<rect class="label-background" x="100" y="829" width="52.68" height="16" rx="2"/>
<rect class="shade" x="100" y="829" width="52.68" height="16" rx="2" fill-opacity="0.1426"/>
<text class="directory-label" x="103" y="841" textLength="46.68" lengthAdjust="spacingAndGlyphs">browser</text>
</g>
<g class="node n43">
<rect class="label-background" x="311" y="184" width="77.34" height="16" rx="2"/>
<rect class="shade" x="311" y="184" width="77.34" height="16" rx="2" fill-opacity="0.1426"/>
<text class="directory-label" x="314" y="196" textLength="71.34" lengthAdjust="spacingAndGlyphs">components</text>
</g>
<g class="node n47">
<rect class="label-background" x="597" y="546" width="42" height="16" rx="2"/>
<rect class="shade" x="597" y="546" width="42" height="16" rx="2" fill-opacity="0.1855"/>
<text class="directory-label" x="600" y="558" textLength="36" lengthAdjust="spacingAndGlyphs">inputs</text>
</g>
<g class="node n48">
<rect class="label-background" x="381" y="668" width="34.01" height="16" rx="2"/>
<rect class="shade" x="381" y="668" width="34.01" height="16" rx="2" fill-opacity="0.1855"/>
<text class="directory-label" x="384" y="680" textLength="28.01" lengthAdjust="spacingAndGlyphs">state</text>
</g>
<g class="node n49">
<rect class="label-background" x="574" y="392" width="54.68" height="16" rx="2"/>
<rect class="shade" x="574" y="392" width="54.68" height="16" rx="2" fill-opacity="0.1855"/>
<text class="directory-label" x="577" y="404" textLength="48.68" lengthAdjust="spacingAndGlyphs">sections</text>
</g>
<g class="node n44">
<rect class="label-background" x="458" y="982" width="49.33" height="16" rx="2"/>
<rect class="shade" x="458" y="982" width="49.33" height="16" rx="2" fill-opacity="0.1426"/>
<text class="directory-label" x="461" y="994" textLength="43.33" lengthAdjust="spacingAndGlyphs">options</text>
</g>
<g class="node n45">
<rect class="label-background" x="986" y="982" width="33.35" height="16" rx="2"/>
<rect class="shade" x="986" y="982" width="33.35" height="16" rx="2" fill-opacity="0.1426"/>
<text class="directory-label" x="989" y="994" textLength="27.35" lengthAdjust="spacingAndGlyphs">style</text>
</g>
<g class="node n46">
<rect class="label-background" x="1217" y="816" width="50.68" height="16" rx="2"/>
<rect class="shade" x="1217" y="816" width="50.68" height="16" rx="2" fill-opacity="0.1426"/>
<text class="directory-label" x="1220" y="828" textLength="44.68" lengthAdjust="spacingAndGlyphs">transfer</text>
</g>
<g class="node n50">
<rect class="label-background" x="393" y="831.6" width="35.33" height="16" rx="2"/>
<rect class="shade" x="393" y="831.6" width="35.33" height="16" rx="2" fill-opacity="0.1426"/>
<text class="directory-label" x="396" y="843.6" textLength="29.33" lengthAdjust="spacingAndGlyphs">fonts</text>
</g>
<g class="node n42">
<rect class="label-background" x="76" y="1110" width="43.36" height="16" rx="2"/>
<rect class="shade" x="76" y="1110" width="43.36" height="16" rx="2" fill-opacity="0.0975"/>
<text class="directory-label" x="79" y="1122" textLength="37.36" lengthAdjust="spacingAndGlyphs">assets</text>
</g>
</svg>
